<svg width="6" height="23" viewBox="0 0 6 23" fill="none" xmlns="http://www.w3.org/2000/svg">
<path id="{" d="M0.0390625 11.0547C1.39918 10.8014 2.07924 10.1015 2.07924 8.95507C2.07924 8.4485 2.01257 7.58199 1.87922 6.35555C1.74588 5.04913 1.6792 4.10264 1.6792 3.51609C1.6792 2.55626 1.94589 1.82307 2.47927 1.31649C3.02599 0.809922 3.75271 0.556641 4.65946 0.556641H5.81956V2.13634H4.99949C4.47944 2.13634 4.09274 2.25632 3.83939 2.49628C3.58603 2.7229 3.45936 3.10283 3.45936 3.63606C3.45936 4.02265 3.48603 4.50257 3.53936 5.07579C3.5927 5.63569 3.62604 6.01562 3.63937 6.21558C3.77272 7.49534 3.83939 8.4285 3.83939 9.01506C3.83939 9.72159 3.65937 10.3148 3.29934 10.7947C2.95265 11.2613 2.4126 11.5746 1.6792 11.7345V11.7745C2.4126 11.9345 2.95265 12.2544 3.29934 12.7344C3.65937 13.2143 3.83939 13.8075 3.83939 14.514C3.83939 15.1006 3.77272 16.0337 3.63937 17.3135C3.62604 17.5135 3.5927 17.9001 3.53936 18.4733C3.48603 19.0332 3.45936 19.5064 3.45936 19.893C3.45936 20.4263 3.58603 20.8062 3.83939 21.0328C4.09274 21.2728 4.47944 21.3927 4.99949 21.3927H5.81956V22.9724H4.65946C3.75271 22.9724 3.02599 22.7192 2.47927 22.2126C1.94589 21.706 1.6792 20.9728 1.6792 20.013C1.6792 19.4264 1.74588 18.48 1.87922 17.1735C2.01257 15.9471 2.07924 15.0806 2.07924 14.574C2.07924 13.4276 1.39918 12.7277 0.0390625 12.4744V11.0547Z" fill="#1C1E53"/>
</svg>
